<?xml version="1.0" encoding="UTF-8"?>
<svg xmlns="http://www.w3.org/2000/svg" viewBox="0 0 1520 439" width="1520" height="439">
<path d="M511.98 60.95C511.98 72.32 511.98 83.69 511.98 95.06C482.32 95.06 452.67 95.06 423.01 95.06C423.01 109.02 423.01 122.98 423.01 136.94C449.96 136.94 476.91 136.94 503.86 136.94C503.86 147.63 503.86 158.31 503.86 169C476.9 169 449.95 169 422.99 169C422.99 195.65 422.99 222.31 422.99 248.96C410.96 248.96 398.93 248.96 386.89 248.96C386.89 186.29 386.89 123.62 386.89 60.95C428.59 60.95 470.28 60.95 511.98 60.95ZM560.24 61.04C560.24 123.68 560.24 186.32 560.24 248.96C548 248.96 535.76 248.96 523.52 248.96C523.52 186.32 523.52 123.68 523.52 61.04C535.76 61.04 548 61.04 560.24 61.04ZM1090.93 99C1090.79 97.82 1090.64 96.65 1090.5 95.47C1090.29 96.65 1090.07 97.82 1089.86 99C1088.23 102.39 1087.58 106.53 1086.63 110.23C1084.38 118.96 1082.07 127.66 1079.76 136.37C1073.22 161.11 1066.78 185.87 1060.25 210.62C1057.8 219.9 1055.5 229.22 1052.98 238.48C1052.51 240.21 1051.15 247.6 1050.04 248.43C1048.15 249.85 1043.76 249 1041.5 249C1036.33 249 1019.36 250.05 1015.53 248.96C1012.61 248.12 1012.31 242.41 1011.63 239.78C1009.3 230.81 1006.87 221.86 1004.55 212.89C997.93 187.32 990.96 161.84 984.32 136.28C982.34 128.62 980.27 120.98 978.28 113.32C977.03 108.56 976.21 103.17 974.13 98.78C973.92 97.57 973.71 96.36 973.5 95.14C973.36 96.43 973.21 97.71 973.07 99C973 148.83 972.94 198.67 972.87 248.5C960.84 248.5 948.8 248.5 936.76 248.5C936.76 186.17 936.76 123.83 936.76 61.5C941.85 60.57 947.29 61 952.5 61C960.83 61 969.17 61 977.5 61C980.31 61 990.12 60.12 992.04 61.57C993.12 62.39 994.53 69.81 994.99 71.52C997.51 80.75 999.89 90.01 1002.34 99.26C1012.03 135.82 1022.25 172.27 1031.5 208.95C1034.51 205.87 1034.86 201.6 1035.98 197.49C1037.86 190.62 1039.64 183.73 1041.42 176.84C1048.39 149.97 1055.77 123.21 1062.74 96.35C1065.01 87.64 1067.38 78.96 1069.66 70.26C1070.19 68.24 1070.64 62.31 1072.63 61.26C1075.11 59.95 1084.34 60.94 1087.5 60.94C1099.41 60.94 1116.48 59.55 1127.73 61.5C1127.73 123.83 1127.73 186.17 1127.73 248.5C1115.53 248.5 1103.33 248.5 1091.13 248.5C1091.06 198.67 1091 148.83 1090.93 99ZM1423.87 61.04C1423.46 104.49 1423.87 148.02 1423.87 191.5C1423.87 203.17 1423.87 214.83 1423.87 226.5C1423.87 229.34 1424.76 237.81 1423.43 239.96C1422.12 242.09 1411.5 245.45 1408.81 246.38C1391.94 252.24 1372.31 254.75 1354.5 252.81C1335.5 250.74 1316.81 243.15 1304.54 227.93C1281.8 199.76 1284.25 153.18 1311 128.5C1331.73 109.37 1361.04 109.11 1387.11 113.89C1387.11 96.27 1387.11 78.66 1387.11 61.04C1399.37 61.04 1411.62 61.04 1423.87 61.04ZM641.69 111.14C663.87 110.39 686.33 115.79 702.31 132.18C726.34 156.84 728.2 198.61 707.38 225.86C694.99 242.07 675.44 250.85 655.5 252.86C643.86 254.03 631.66 252.47 620.61 248.77C579.87 235.12 562.98 188.37 580.57 150.11C591.31 126.76 616.39 112 641.69 111.14ZM1278.99 190C1245.76 190 1212.54 190 1179.31 190C1180.42 194.66 1181.88 199 1184.41 203.11C1196.87 223.37 1223.5 222.6 1243.27 214.77C1247.88 212.94 1252.1 210.4 1256.5 208.15C1261.78 217.27 1267.06 226.38 1272.35 235.5C1263.36 243.29 1247.9 247.86 1236.43 250.18C1199.71 257.58 1159.22 246.18 1145.25 208.29C1141.84 199.03 1140.83 189.3 1140.89 179.5C1140.96 170.02 1142.59 160.47 1146.16 151.65C1158.42 121.42 1190.11 107.29 1221.5 111.72C1233.73 113.44 1245.28 117.6 1254.9 125.57C1274.15 141.52 1278.7 166.39 1278.99 190ZM785.5 214C788.93 206.8 789.59 197.42 791.27 189.6C794.87 172.85 798.22 156.03 801.61 139.23C802.74 133.65 803.87 128.08 804.98 122.5C805.38 120.5 805.36 116.84 807.47 116.14C810.27 115.2 814.56 116 817.5 116C824.5 116 831.5 116 838.5 116C840.96 116 846.94 114.94 848.81 116.69C850.06 117.86 850.09 121.7 850.4 123.25C851.68 129.61 852.99 135.97 854.31 142.33C859.2 165.87 864.07 189.39 869.5 212.82C872.64 209.53 873.86 197.61 875.08 192.52C879.29 174.99 882.36 157.15 885.8 139.46C886.9 133.81 887.96 128.15 889.05 122.5C889.32 121.05 889.49 117.17 890.72 116.33C892.06 115.41 898.63 116 900.5 116C909.61 116 919.49 114.98 928.44 116.5C921.11 148.33 912.98 179.98 905.33 211.73C903.26 220.33 901.23 228.94 899.07 237.52C898.5 239.8 897.72 246.44 896.5 248.04C894.85 250.2 888 249 885.5 249C876.5 249 867.5 249 858.5 249C856.08 249 850.98 249.97 849.11 248.27C847.93 247.2 847.82 243.44 847.51 241.98C846.23 235.88 845.04 229.75 843.72 223.65C840.22 207.55 836.91 191.39 833.33 175.3C831.57 167.42 830.33 159.25 827.5 151.7C821.53 175.9 816.53 200.37 811.39 224.75C810.11 230.84 808.81 236.93 807.5 243.01C807.22 244.34 807.2 247.51 806.04 248.4C804.01 249.96 798.96 249 796.5 249C787.5 249 778.5 249 769.5 249C767.21 249 761.01 250.09 759.46 248.14C758.24 246.6 757.35 239.77 756.79 237.55C754.43 228.23 752.16 218.88 749.81 209.56C741.99 178.57 733.8 147.62 726.56 116.5C735.51 114.98 745.39 116 754.5 116C756.83 116 762.31 114.98 764.28 116.33C765.53 117.18 765.68 121.05 765.97 122.5C767.08 128.14 768.16 133.79 769.27 139.43C772.67 156.83 776.16 174.21 779.8 191.55C780.85 196.53 781.86 201.52 782.9 206.5C783.3 208.4 783.35 211.83 784.37 213.45C785.15 214.7 784.33 212.81 785.5 214ZM1241.08 167.04C1240.14 162.09 1238.43 157.24 1235.38 153.14C1218.7 130.73 1185.38 140.78 1179.75 167.04C1200.19 167.04 1220.64 167.04 1241.08 167.04ZM644.69 144.17C603.8 146.64 598.45 206.56 636.36 218.29C641.21 219.79 646.43 220.39 651.5 219.85C688.61 215.93 697.18 162.05 663.33 147.16C657.5 144.6 650.99 143.79 644.69 144.17ZM1361.69 144.14C1327.66 144.02 1314.99 186.65 1336.07 209.41C1347.81 222.09 1368.78 221.85 1384.24 217.66C1388.14 216.6 1387.13 212.84 1387.13 209.5C1387.13 202.17 1387.13 194.83 1387.13 187.5C1387.13 177.83 1387.13 168.17 1387.13 158.5C1387.13 155.69 1388.21 149.96 1386.35 147.69C1385.34 146.46 1381.08 146.27 1379.55 145.98C1373.59 144.84 1367.73 144.16 1361.69 144.14Z" fill="#2a446b" fill-rule="evenodd" stroke="#2a446b" stroke-width="0.25" stroke-linejoin="round"/>
<path d="M200.52 63.44C230.17 63.26 240.59 104.18 214.38 117.88C211.27 119.51 207.53 120.98 204 121.24C199.27 121.58 194.52 121.07 190.06 119.45C160.36 108.63 168.57 63.63 200.52 63.44ZM70.63 92.41C70.46 91.63 70.3 90.85 70.13 90.06C69.92 84.4 71.53 78.32 75.75 74.25C86.31 64.06 105.48 69.03 108.96 83.53C111.22 92.9 106.63 103.48 97.32 106.86C86.04 110.97 72.36 104.74 70.63 92.41ZM135.54 69.19C145.39 66.7 156.56 70.98 161.43 80.12C167.66 91.83 162.69 108.82 149.22 112.63C140.37 115.13 130.28 113.68 123.9 106.61C112.49 93.96 119.4 73.27 135.54 69.19ZM77.17 192C77.62 191.42 78.06 190.84 78.5 190.26C77.99 190.53 77.48 190.81 76.97 191.09C72.14 190.3 67.4 190.08 62.5 190.05C60.24 190.04 57.21 190.57 55.31 189.11C52.91 187.26 53.85 178.45 53.84 175.5C53.8 166.17 53.82 156.83 53.81 147.5C53.81 142.04 53.16 136.29 55.79 131.38C56.08 130.85 56.37 130.31 56.66 129.77C61.78 116.39 75.46 116.06 87.5 115.79C94.62 115.62 101.58 115.71 108.23 118.5C106.92 121.5 103.58 123.32 101.33 125.78C98.22 129.19 95.95 133.33 94.23 137.59C91.63 144.03 92.08 151.67 92.03 158.5C91.96 169.19 91.99 179.84 91.91 190.5C91.87 196.96 90.29 205.43 92.95 211.46C95.55 217.37 100.56 219.97 104.56 224.5C98.66 225.36 92.5 224.63 86.5 224.94C83.98 225.06 80.56 225.83 78.51 223.98C76.34 222.04 77.06 218.05 77.08 215.5C77.15 207.67 76.97 199.83 77.17 192ZM139.83 156.7C139.82 157.47 139.81 158.23 139.8 159C140.14 176.48 139.88 194.02 139.85 211.5C139.84 219.96 138.94 229.08 140.23 237.45C141.13 243.26 143.81 248.42 147.62 252.84C150.56 256.24 154.33 256.89 155.05 261.5C151.61 264.36 144.96 263.2 140.47 263.15C136.12 263.11 129.83 265.1 125.94 262.53C122.48 260.25 123.37 253.95 123.37 250.34C123.39 238.41 123.25 226.44 123.17 214.5C117.95 213.49 110.67 215.68 106.06 212.44C101.97 209.56 101.63 204 101.67 199.5C101.76 189.71 101.66 179.77 102.23 170C102.61 169.5 103 169 103.39 168.5C103 168.33 102.61 168.17 102.22 168C102.4 158.02 100.62 146.37 105.72 137.26C114.24 122.03 128.22 122.73 143.5 122.69C151.23 122.67 158.67 122.13 165.76 125.5C149.82 134.47 144.47 138.12 139.83 156.7ZM156.95 247C156.28 246.39 155.61 245.78 154.94 245.18C149.98 241.1 150.09 234.44 149.93 228.5C149.72 220.82 149.22 213.2 149.2 205.5C149.19 197.17 149.18 188.83 149.19 180.5C149.2 165 148.96 149.18 162.64 139.05C171.97 132.15 184.43 132.04 195.5 131.96C203.95 131.9 213.1 130.98 221.46 132.25C236.02 134.48 249.39 146.74 250.95 161.5C246.16 162.39 241.39 161.99 236.5 162.12C225.52 162.43 214.5 162.1 203.5 162.08C199.03 162.08 194.2 161.63 189.78 162.44C176.31 164.91 166.18 177.38 164.3 190.57C163.38 197.02 164.01 203.99 164.03 210.5C164.05 218.83 164.07 227.17 164.05 235.5C164.04 240.71 164.54 246.16 163.5 251.23C161.32 249.82 159.14 248.41 156.95 247ZM121.95 286.06C121.73 286.2 121.52 286.35 121.3 286.5C121.52 286.35 121.73 286.2 121.95 286.06C128.63 289.33 131.49 296.51 140.31 298.15C145.44 299.1 151.43 298.44 156.66 298.4C158.49 298.39 161.77 297.8 163.28 299.07C164.95 300.48 164.97 304.56 165.7 306.62C167.29 311.09 169.48 314.57 172.03 318.5C166.94 320.19 160.87 319.09 155.5 319.18C146.58 319.33 136.14 320.42 127.79 316.72C118.7 312.68 110 301.55 103.07 294.42C98.56 289.78 90.61 283.41 87.88 277.85C88.09 277.39 88.29 276.92 88.5 276.45C87.97 276.72 87.43 277 86.9 277.27C80.32 272.36 74.83 265.32 69.01 259.49C57.03 247.47 45.13 235.37 33.04 223.47C31.23 221.69 29 219.9 27.87 217.58C25.95 213.64 26.03 205.21 30.61 202.93C38.77 198.86 50.37 213.75 55.51 218.98C70.39 234.1 85.45 249.06 100.53 263.97C105.46 268.85 119.28 280.93 121.95 286.06Z" fill="#275787" fill-rule="evenodd" stroke="#275787" stroke-width="0.25" stroke-linejoin="round"/>
<path d="M56.66 129.77C56.37 130.31 56.08 130.85 55.79 131.38C56.08 130.85 56.37 130.31 56.66 129.77ZM102.22 168C102.61 168.17 103 168.33 103.39 168.5C103 169 102.61 169.5 102.23 170C102.23 169.33 102.22 168.67 102.22 168ZM76.97 191.09C77.48 190.81 77.99 190.53 78.5 190.26C78.06 190.84 77.62 191.42 77.17 192C77.1 191.7 77.04 191.39 76.97 191.09ZM154.94 245.18C155.61 245.78 156.28 246.39 156.95 247C156.28 246.39 155.61 245.78 154.94 245.18ZM86.9 277.27C87.43 277 87.97 276.72 88.5 276.45C88.29 276.92 88.09 277.39 87.88 277.85C87.55 277.66 87.23 277.47 86.9 277.27ZM121.95 286.06C121.73 286.2 121.52 286.35 121.3 286.5C121.52 286.35 121.73 286.2 121.95 286.06ZM1481.92 312.08C1481.92 317.71 1481.92 323.34 1481.92 328.98C1114.83 328.98 747.74 328.98 380.66 328.98C380.66 323.34 380.66 317.71 380.66 312.08C747.74 312.08 1114.83 312.08 1481.92 312.08Z" fill="#285f8b" fill-rule="evenodd" stroke="#285f8b" stroke-width="0.25" stroke-linejoin="round"/>
<path d="M418.5 369.15C424.28 368.38 426.13 376.87 420.44 377.85C414.51 378.88 412.62 369.94 418.5 369.15ZM1058.67 373C1058.53 373.43 1058.4 373.87 1058.26 374.3C1056.93 378.45 1052.92 379 1050.19 375.63C1049.65 375.56 1049.11 375.49 1048.57 375.42C1046.39 380.55 1041.92 373.41 1038.85 380.57C1038.85 381.17 1038.85 381.77 1038.85 382.38C1041.66 382.83 1044.47 383.28 1047.29 383.73C1047.29 385.25 1047.29 386.76 1047.29 388.28C1044.51 388.78 1041.73 389.28 1038.95 389.78C1038.84 397.96 1038.73 406.15 1038.62 414.34C1036.54 414.34 1034.46 414.34 1032.38 414.34C1032.27 406.15 1032.16 397.96 1032.05 389.78C1029.32 388.66 1026.29 389.61 1026.76 385.5C1026.88 384.49 1026.73 383.86 1027.64 383.22C1028.62 382.54 1030.88 382.76 1032.08 382.25C1032.08 381.5 1032.09 380.75 1032.09 380C1032.67 373.13 1038.03 370.53 1044.5 370.96C1045.8 371.04 1048.05 372.06 1049.28 371.72C1050.14 371.47 1050.62 370.38 1051.37 369.91C1054.68 367.84 1057.59 369.75 1058.67 373ZM1404.92 373C1404.92 373.33 1404.91 373.67 1404.91 374C1403.59 379.11 1397.42 379.12 1396.1 374C1396.1 373.67 1396.1 373.33 1396.1 373C1397.36 367.87 1403.74 367.89 1404.92 373ZM681.73 371.18C681.73 385.62 681.73 400.06 681.73 414.5C680.03 414.76 677.26 415.69 675.57 414.78C674.46 414.18 674.72 412.59 673.44 412.33C672.72 412.18 668.05 414.69 666.5 414.89C657.83 416 649.99 410.61 648.48 401.95C646.5 390.64 656.04 381.07 667.4 383.3C669.81 383.78 671.99 385.26 674.09 386.41C674.09 381.33 674.09 376.26 674.09 371.18C676.64 371.18 679.18 371.18 681.73 371.18ZM883.5 371.74C884.07 376.22 881.07 380.26 875.92 378.54C874.08 377.93 872.49 375.39 870.52 375.3C866.86 375.14 868.62 378.57 863.64 378.5C863.09 374.13 866.57 370 871.29 371.26C873.51 371.85 875.18 374.88 877.51 374.86C879.71 374.85 879.48 372.47 883.5 371.74ZM974.62 371.66C974.62 385.89 974.62 400.11 974.62 414.34C972.59 414.33 970.57 414.33 968.54 414.33C968.37 413.42 968.2 412.52 968.02 411.61C965.28 411.86 962.67 414.62 959.5 414.94C948.86 416.01 940.92 407.67 942.08 397.25C942.1 396.83 942.11 396.42 942.12 396C943.44 387.21 951.66 381.72 960.45 383.18C963.14 383.63 965.24 385.34 967.58 386.5C967.64 381.5 967.7 376.5 967.76 371.5C970.05 371.55 972.33 371.61 974.62 371.66ZM1072.73 371.18C1072.73 385.73 1072.73 400.27 1072.73 414.82C1070.24 414.82 1067.76 414.82 1065.27 414.82C1065.27 400.27 1065.27 385.73 1065.27 371.18C1067.76 371.18 1070.24 371.18 1072.73 371.18ZM1336.47 371.18C1336.47 385.73 1336.47 400.27 1336.47 414.82C1334.03 414.82 1331.58 414.82 1329.14 414.82C1329.14 400.27 1329.14 385.73 1329.14 371.18C1331.58 371.18 1334.03 371.18 1336.47 371.18ZM1343.83 377.98C1344.21 377.64 1344.58 377.3 1344.96 376.96C1345.29 376.63 1345.63 376.29 1345.96 375.96C1346.29 375.63 1346.63 375.29 1346.96 374.96C1347.29 374.62 1347.62 374.27 1347.95 373.93C1348.28 373.6 1348.6 373.26 1348.93 372.93C1349.27 372.56 1349.61 372.19 1349.95 371.82C1352.3 371.72 1354.65 371.61 1357 371.5C1354.76 375.87 1348.32 380.68 1343.83 377.98ZM408.96 377.5C408.14 379.27 407.32 381.04 406.5 382.82C402.15 380.78 385.88 376.28 386.44 385.5C386.67 389.3 391.63 390.2 394.51 390.98C402.86 393.24 415.96 396.82 409.32 408.77C405.06 416.44 393.27 416.31 385.96 414.45C384.03 413.96 378.82 412.73 378.34 410.36C378.05 408.91 379.89 406.39 380.5 405.18C385.8 407.7 390.48 409.51 396.5 409.03C399.2 408.81 402.74 407.71 403.05 404.48C403.43 400.62 399.6 399.45 396.61 398.62C390.94 397.03 381.25 396.12 379.31 389.26C374.67 372.82 399.77 369.95 408.96 377.5ZM466.72 376.18C466.72 378.45 466.72 380.73 466.72 383C469.5 383 472.27 383 475.05 383C475.05 385.01 475.05 387.03 475.05 389.04C472.31 389.04 469.57 389.04 466.83 389.04C466.76 393.03 465.53 403.77 467.51 406.99C469.63 410.42 472.83 407.02 475.17 408.38C476.2 408.99 476.65 411.43 477.06 412.5C475.34 413.93 473.83 414.75 471.5 414.96C469.93 415.1 468.28 415.02 466.75 414.67C454.52 411.87 461.83 397.67 459.07 390.45C458.22 388.23 456.32 389.95 454.76 388.76C453.3 387.65 454.33 384.6 454.5 383.15C460.39 382.79 459.3 381.47 459.26 376.18C461.75 376.18 464.23 376.18 466.72 376.18ZM846.72 376.18C846.72 378.45 846.72 380.73 846.72 383C849.5 383 852.27 383 855.05 383C855.05 385.01 855.05 387.03 855.05 389.04C852.31 389.04 849.57 389.04 846.83 389.04C846.76 393.03 845.53 403.77 847.51 406.99C849.63 410.42 852.83 407.02 855.17 408.38C856.2 408.99 856.65 411.43 857.06 412.5C855.34 413.93 853.83 414.75 851.5 414.96C849.93 415.1 848.28 415.02 846.75 414.67C834.52 411.87 841.83 397.67 839.07 390.45C838.22 388.23 836.32 389.95 834.76 388.76C833.3 387.65 834.33 384.6 834.5 383.15C840.39 382.79 839.3 381.47 839.26 376.18C841.75 376.18 844.23 376.18 846.72 376.18ZM422.46 383.67C422.46 393.89 422.46 404.11 422.46 414.33C420.22 414.39 417.99 414.44 415.76 414.5C415.76 404.17 415.76 393.83 415.76 383.5C417.99 383.56 420.22 383.61 422.46 383.67ZM452.7 385.5C450.54 397.87 440.97 382.67 434.89 392.5C438.4 400.08 456.8 393.63 453.97 407.47C451.77 418.15 433.66 415.27 427 411.5C427.84 409.72 428.67 407.95 429.5 406.17C434.92 407.65 443.47 411.87 447.08 405.5C443.11 398.4 426.43 404.76 427.86 391.5C429.03 380.57 445.77 382.45 452.7 385.5ZM510.74 401C502.49 401 494.25 401 486 401C488.46 410.01 497.76 410.11 504.5 405.65C505.75 406.94 507 408.22 508.25 409.5C503.08 417.34 489.54 416.42 483.16 410.35C478.66 406.06 477.57 398.86 479.59 393.13C483.14 383.05 496.95 379.82 505.08 386.44C509.63 390.14 510.67 395.42 510.74 401ZM523.5 386.02C530.42 381.36 537.3 382.66 543.5 387.66C545.66 385.83 547.56 384.5 550.3 383.67C552.03 383.15 553.69 382.95 555.5 383.01C571.73 383.52 567.76 403.92 567.87 414.82C565.42 414.82 562.98 414.82 560.53 414.82C560.53 408.18 563.64 389.3 553.5 389.16C542.24 389.01 545.24 407.75 545.24 414.82C542.83 414.82 540.42 414.82 538.01 414.82C538.1 408.15 541.1 388.78 530.5 389.17C519.66 389.57 522.69 407.65 522.74 414.82C520.25 414.82 517.76 414.82 515.27 414.82C515.27 404.38 515.27 393.94 515.27 383.5C519.98 382.77 520.76 382.32 523.5 386.02ZM601.47 414.5C599.77 414.79 597.28 415.63 595.57 414.78C594.46 414.23 594.73 412.82 593.46 412.64C592.26 412.47 589.79 414.41 588.41 414.67C583.03 415.71 575.11 414.44 573.37 408.22C569.72 395.24 585.74 395.96 593.5 395.97C593.72 385.74 582.61 389.61 576.5 391.7C575.88 390.59 573.93 388.21 574.48 386.84C575.16 385.12 578.94 384.3 580.49 383.91C585.67 382.6 592.31 382.29 596.87 385.62C603.93 390.78 601.47 406.77 601.47 414.5ZM630.97 385.5C628.58 397.95 619.46 382.54 613.12 392.5C616.45 399.75 634.83 394.04 632.44 406.82C630.3 418.25 612.51 415.46 605.28 411.5C606.35 409.69 607.43 407.88 608.5 406.07C613.66 408.44 621.77 411.28 625.41 405.5C624.92 404.67 624.94 404.04 624.18 403.39C619.52 399.45 604.75 403.93 606.1 391.52C607.28 380.74 624.16 382.36 630.97 385.5ZM718.74 401C710.49 401 702.25 401 694 401C696.46 410.01 705.76 410.11 712.5 405.65C713.75 406.94 715 408.22 716.25 409.5C711.08 417.34 697.54 416.42 691.16 410.35C686.66 406.06 685.57 398.86 687.59 393.13C691.14 383.05 704.95 379.82 713.08 386.44C717.63 390.14 718.67 395.42 718.74 401ZM760.5 386.37C762.95 382.34 763.68 382.69 768.47 383.5C768.47 389.5 768.47 395.5 768.47 401.5C768.47 413.49 768.82 425.02 753.5 425.98C750.95 426.14 748.38 426 745.88 425.52C742.28 424.82 739.34 423.66 736.4 421.5C737.43 419.84 738.47 418.19 739.5 416.53C747.24 419.89 762.85 423.51 760.5 409.56C750.11 416.84 734.59 411.29 734.83 397.5C735.06 384.14 750.65 379.55 760.5 386.37ZM805.74 401C797.49 401 789.25 401 781 401C783.46 410.01 792.76 410.11 799.5 405.65C800.75 406.94 802 408.22 803.25 409.5C798.08 417.34 784.54 416.42 778.16 410.35C773.66 406.06 772.57 398.86 774.59 393.13C778.14 383.05 791.95 379.82 800.08 386.44C804.63 390.14 805.67 395.42 805.74 401ZM832.7 385.5C830.54 397.87 820.97 382.67 814.89 392.5C818.4 400.08 836.8 393.63 833.97 407.47C831.77 418.15 813.66 415.27 807 411.5C807.84 409.72 808.67 407.95 809.5 406.17C814.92 407.65 823.47 411.87 827.08 405.5C823.11 398.4 806.43 404.76 807.86 391.5C809.03 380.57 825.77 382.45 832.7 385.5ZM887.47 414.5C885.77 414.79 883.28 415.63 881.57 414.78C880.46 414.23 880.73 412.82 879.46 412.64C878.26 412.47 875.79 414.41 874.41 414.67C869.03 415.71 861.11 414.44 859.37 408.22C855.72 395.24 871.74 395.96 879.5 395.97C879.72 385.74 868.61 389.61 862.5 391.7C861.88 390.59 859.93 388.21 860.48 386.84C861.16 385.12 864.94 384.3 866.49 383.91C871.67 382.6 878.31 382.29 882.87 385.62C889.93 390.78 887.47 406.77 887.47 414.5ZM906.69 383.15C912.41 382.58 918.75 384.4 922.36 389.17C929.75 398.91 923.56 413.34 911.5 414.88C888.83 417.78 884.76 385.33 906.69 383.15ZM1012.1 401C1003.9 401 995.71 401 987.51 401C989.34 406.41 993.41 409.5 999.41 408.67C1001.51 408.37 1004.44 405.76 1006.36 406.13C1007.62 406.37 1009.01 408.61 1009.87 409.5C1000.51 423.15 973.89 411.38 981.24 392.7C985.23 382.53 999.48 379.87 1007.41 387.08C1011.5 390.79 1012.01 395.86 1012.1 401ZM1057.73 383.18C1057.73 393.73 1057.73 404.27 1057.73 414.82C1055.24 414.82 1052.76 414.82 1050.27 414.82C1050.27 404.27 1050.27 393.73 1050.27 383.18C1052.76 383.18 1055.24 383.18 1057.73 383.18ZM1106.47 414.5C1104.77 414.79 1102.28 415.63 1100.57 414.78C1099.46 414.23 1099.73 412.82 1098.46 412.64C1097.26 412.47 1094.79 414.41 1093.41 414.67C1088.03 415.71 1080.11 414.44 1078.37 408.22C1074.72 395.24 1090.74 395.96 1098.5 395.97C1098.72 385.74 1087.61 389.61 1081.5 391.7C1080.88 390.59 1078.93 388.21 1079.48 386.84C1080.16 385.12 1083.94 384.3 1085.49 383.91C1090.67 382.6 1097.31 382.29 1101.87 385.62C1108.93 390.78 1106.47 406.77 1106.47 414.5ZM1135.97 385.5C1133.58 397.95 1124.46 382.54 1118.12 392.5C1121.45 399.75 1139.83 394.04 1137.44 406.82C1135.3 418.25 1117.51 415.46 1110.28 411.5C1111.35 409.69 1112.43 407.88 1113.5 406.07C1118.66 408.44 1126.77 411.28 1130.41 405.5C1129.92 404.67 1129.94 404.04 1129.18 403.39C1124.52 399.45 1109.75 403.93 1111.1 391.52C1112.28 380.74 1129.16 382.36 1135.97 385.5ZM1163.5 386.55C1174.23 378.2 1189.34 385.94 1188.99 399.5C1188.6 414.27 1174.5 418.37 1163.02 411.41C1163.02 416.21 1163.02 421.02 1163.02 425.82C1160.6 425.82 1158.18 425.82 1155.76 425.82C1155.76 411.71 1155.76 397.61 1155.76 383.5C1160.27 382.68 1161.95 381.88 1163.5 386.55ZM1220.1 414.5C1216.07 415.06 1214.09 416.26 1212.5 412.03C1205.81 416.84 1191.88 416.15 1191.78 405.5C1191.66 394.48 1205.17 396.25 1212.5 395.87C1212 386.3 1201.46 388.99 1195.5 391.91C1194.72 390.1 1193.94 388.3 1193.16 386.5C1195.82 384.99 1198.43 383.88 1201.47 383.35C1203.7 382.96 1206.07 382.93 1208.31 383.15C1224.05 384.73 1219.89 403.46 1220.1 414.5ZM1234.5 386.76C1237.63 384.3 1240.57 383.36 1244.5 383C1247.5 393.17 1238.58 386.74 1235.51 393.99C1232.98 399.98 1234.47 408.47 1234.47 414.82C1232.03 414.82 1229.58 414.82 1227.14 414.82C1227.14 404.38 1227.14 393.94 1227.14 383.5C1231.87 382.8 1233.33 381.74 1234.5 386.76ZM1275.99 414.5C1271.99 415.07 1269.94 416.29 1268.5 411.99C1261.83 416.49 1247.55 416.45 1247.55 405.5C1247.56 394.22 1261.14 396.53 1268.5 395.76C1267.43 386.82 1257.44 388.79 1251.5 391.92C1250.68 390.12 1249.85 388.31 1249.03 386.5C1251.53 385.07 1253.98 383.98 1256.83 383.43C1259.05 383 1261.29 382.9 1263.55 383.05C1280.08 384.15 1275.81 403.12 1275.99 414.5ZM1324.87 390.5C1323.42 391.42 1321.39 393.3 1319.56 393.03C1317.51 392.72 1315.8 390.02 1313.5 389.49C1307.53 388.11 1302.21 392.51 1302.01 398.5C1301.81 404.78 1306.81 409.8 1313.23 408.63C1315.66 408.18 1317.47 405.46 1319.6 405.17C1321.19 404.95 1323.3 406.75 1324.64 407.5C1319.14 421.62 1294.31 415.25 1294.64 398.5C1294.95 383.04 1317.19 376.99 1324.87 390.5ZM1350.62 383.66C1350.62 393.89 1350.62 404.11 1350.62 414.34C1348.54 414.34 1346.46 414.34 1344.38 414.34C1344.38 404.11 1344.38 393.89 1344.38 383.66C1346.46 383.66 1348.54 383.66 1350.62 383.66ZM1366.5 386.31C1368.93 384.67 1371.06 383.65 1374 383.24C1393.43 380.5 1389.66 402.61 1389.74 414.82C1387.25 414.82 1384.75 414.82 1382.26 414.82C1382.31 407.71 1385.5 388.96 1374.5 389.16C1362.89 389.37 1365.89 407.28 1365.99 414.82C1363.58 414.82 1361.17 414.82 1358.76 414.82C1358.76 404.38 1358.76 393.94 1358.76 383.5C1363.04 382.72 1364.89 381.88 1366.5 386.31ZM1403.62 383.66C1403.62 393.89 1403.62 404.11 1403.62 414.34C1401.54 414.34 1399.46 414.34 1397.38 414.34C1397.38 404.11 1397.38 393.89 1397.38 383.66C1399.46 383.66 1401.54 383.66 1403.62 383.66ZM1439.24 390.5C1438.03 391.34 1436.09 393.13 1434.51 393.07C1432.16 392.98 1430.17 389.81 1427.5 389.36C1421.67 388.38 1416.78 392.74 1416.53 398.5C1416.26 404.73 1421.18 409.47 1427.41 408.68C1430.12 408.34 1432.11 405.18 1434.49 405.15C1435.95 405.13 1437.83 406.81 1439.07 407.5C1432.64 422.25 1408.8 414.35 1409.07 398.5C1409.32 383.11 1431.74 376.93 1439.24 390.5ZM1469.99 414.5C1465.99 415.07 1463.94 416.29 1462.5 411.99C1455.83 416.49 1441.55 416.45 1441.55 405.5C1441.56 394.22 1455.14 396.53 1462.5 395.76C1461.43 386.82 1451.44 388.79 1445.5 391.92C1444.68 390.12 1443.85 388.31 1443.03 386.5C1445.53 385.07 1447.98 383.98 1450.83 383.43C1453.05 383 1455.29 382.9 1457.55 383.05C1474.08 384.15 1469.81 403.12 1469.99 414.5ZM1499.5 385.58C1497.75 397.65 1487.95 382.89 1481.75 392.5C1482.16 393.38 1482.07 393.95 1482.76 394.68C1486.88 398.99 1503.44 394.24 1500.83 407.44C1498.73 418.09 1480.44 415.31 1473.88 411.5C1474.76 409.69 1475.63 407.89 1476.5 406.08C1481.57 408.03 1490.59 411.63 1493.97 405.5C1490.3 398.32 1473.12 404.91 1474.68 391.5C1475.96 380.47 1492.57 382.26 1499.5 385.58ZM956.75 389.35C945.26 391.44 947.7 409.88 959.45 408.8C972.01 407.65 969.43 387.03 956.75 389.35ZM503.69 395.92C500.16 387.37 488.86 386.43 485.98 395.92C491.89 395.92 497.79 395.92 503.69 395.92ZM660.72 390.23C649.93 395.23 657.97 413.38 669.28 407.78C679.76 402.59 672.72 384.66 660.72 390.23ZM711.69 395.92C708.16 387.37 696.86 386.43 693.98 395.92C699.89 395.92 705.79 395.92 711.69 395.92ZM747.56 390.07C735.65 394.55 745.02 412.02 756.97 405.46C767.12 399.88 758.54 385.93 747.56 390.07ZM798.69 395.92C795.16 387.37 783.86 386.43 780.98 395.92C786.89 395.92 792.79 395.92 798.69 395.92ZM904.68 390.16C893.69 395.05 901.71 413.46 913.21 407.73C923.72 402.49 916.1 385.09 904.68 390.16ZM1005.08 395.92C1002.26 386.6 990.68 387.18 987.44 395.92C993.32 395.92 999.2 395.92 1005.08 395.92ZM1168.52 390.03C1157.16 394.28 1164.69 413.47 1176.34 407.85C1186.72 402.84 1180.68 385.49 1168.52 390.03ZM593.5 401.03C589.81 401.03 577.74 399.61 580.51 407.04C582.21 411.61 589.46 410.31 592.23 407.72C594.44 405.64 593.91 403.71 593.5 401.03ZM879.5 401.03C875.81 401.03 863.74 399.61 866.51 407.04C868.21 411.61 875.46 410.31 878.23 407.72C880.44 405.64 879.91 403.71 879.5 401.03ZM1098.5 401.03C1094.81 401.03 1082.74 399.61 1085.51 407.04C1087.21 411.61 1094.46 410.31 1097.23 407.72C1099.44 405.64 1098.91 403.71 1098.5 401.03ZM1212.9 401.5C1208.89 400.91 1196.4 399.34 1199.27 407.26C1200.7 411.23 1207.33 410.32 1209.98 408.47C1212.54 406.69 1212.82 404.36 1212.9 401.5ZM1268.5 401.24C1264.5 400.82 1252.12 399.55 1255.16 407.31C1256.71 411.24 1263.23 410.34 1265.92 408.43C1268.59 406.53 1268.65 404.21 1268.5 401.24ZM1462.5 401.24C1458.5 400.82 1446.12 399.55 1449.16 407.31C1450.71 411.24 1457.23 410.34 1459.92 408.43C1462.59 406.53 1462.65 404.21 1462.5 401.24Z" fill="#545454" fill-rule="evenodd" stroke="#545454" stroke-width="0.25" stroke-linejoin="round"/>
<path d="M321.87 218.27C321.87 229.18 321.87 240.09 321.87 251.01C320.98 249.12 321.51 246.72 320.61 244.76C319.68 242.71 316.92 241.52 314.8 242.35C313.82 242.73 313.71 243.67 312.48 244C309.95 244.67 306.26 243.39 303.64 243.5C303.56 245.2 303.71 245.39 302.22 246C301.17 236.23 294.8 235.33 286.5 235.39C277.27 235.46 267.67 236.06 258.5 235.1C258.55 230.73 258.6 226.37 258.65 222C258.66 221.33 258.67 220.67 258.68 220C258.69 216.24 258.7 212.49 258.71 208.73C261.46 206.18 262.67 203.58 266.51 203.5C266.84 205.56 267.17 207.61 267.5 209.67C272.19 209.63 276.84 210.03 281.5 210.12C283.21 210.15 284.85 209.57 286.55 209.72C288.43 209.88 288.39 210.93 289.75 211.42C291.65 212.12 294.57 211.54 296.57 211.5C296.67 208.82 296.85 207.52 298.5 205.67C301.69 206.13 302.03 206.22 302.33 209.5C306.39 208.79 303.48 207.89 306.36 206.88C309.31 205.84 317.06 206.33 320.5 206.37C320.45 211.8 319.57 212.91 321.87 218.27ZM174.04 206.61C177.86 208.05 179.48 206.36 181.4 206.94C182.77 207.35 182.72 209.04 183.8 209.53C185.77 210.42 197.57 209.67 200.5 209.66C201.64 209.66 204.2 210.09 205.2 209.51C205.96 209.06 205.62 208.13 206.09 207.53C206.43 207.1 207.11 207.06 207.5 206.67C207.89 207.06 208.57 207.1 208.91 207.53C209.39 208.16 209.07 209.03 209.8 209.54C212.04 211.1 217.03 210 219.5 209.79C225.7 209.25 230.86 209.51 236.75 208.1C237.1 211.07 237.45 214.03 237.79 217C237.8 217.67 237.8 218.33 237.8 219C237.81 220 237.81 221 237.82 222C237.8 225.67 237.78 229.33 237.77 233C237.5 233.63 237.24 234.26 236.98 234.89C224.99 235.18 212.99 235.46 201 235.74C200.83 235.02 200.67 234.29 200.5 233.56C199.99 234.4 199.47 235.24 198.96 236.09C195.16 241.42 193.84 241.84 194.02 249.14C190.48 244.77 191.89 245.78 185.5 245.86C185.26 244.07 185.02 242.29 184.78 240.5C178.87 239.94 177.18 238.6 176.5 244.62C176.24 242.12 176.27 241.67 174.08 240.99C173.96 239.33 173.84 237.66 173.72 236C173.72 235.33 173.72 234.67 173.72 234C173.72 233.33 173.71 232.67 173.71 232C173.72 231.33 173.72 230.67 173.72 230C173.72 228.33 173.72 226.67 173.73 225C173.73 224.33 173.73 223.67 173.73 223C173.73 219.67 173.74 216.33 173.74 213C173.74 212.33 173.74 211.67 173.74 211C173.74 210 173.74 209 173.74 208C173.84 207.54 173.94 207.08 174.04 206.61ZM280.96 256.16C281.64 256.17 282.32 256.17 283 256.18C283 256.3 283 256.42 283 256.54C282.32 256.42 281.64 256.29 280.96 256.16Z" fill="#57a30f" fill-rule="evenodd" stroke="#57a30f" stroke-width="0.25" stroke-linejoin="round"/>
<path d="M194.02 249.14C195.65 251.37 197.08 253.62 199.68 254.84C203.54 256.67 208.37 255.97 212.5 255.96C220.63 255.95 228.9 255.51 237 256.12C237.25 256.75 237.51 257.37 237.76 258C237.66 260.67 237.57 263.33 237.47 266C237.43 269 237.39 272 237.34 275C237.28 275.14 237.22 275.27 237.15 275.41C236.28 275.94 231.16 279 230.64 279.15C227.35 280.13 222.91 279.38 219.5 279.38C211.17 279.38 202.83 279.38 194.5 279.38C188.17 279.38 181.23 280.22 175.11 278.5C174.88 281.57 175.58 280.82 173.91 283.01C173.85 282.01 173.79 281 173.73 280C173.73 279.33 173.73 278.67 173.73 278C173.74 276.67 173.75 275.33 173.76 274C173.75 273.33 173.75 272.67 173.74 272C173.75 266.67 173.75 261.33 173.76 256C173.76 253 173.76 250 173.76 247C173.76 246.33 173.75 245.67 173.75 245C173.86 243.66 173.97 242.33 174.08 240.99C176.27 241.67 176.24 242.12 176.5 244.62C177.18 238.6 178.87 239.94 184.78 240.5C185.02 242.29 185.26 244.07 185.5 245.86C191.89 245.78 190.48 244.77 194.02 249.14ZM321.87 251.01C321.87 260.27 321.87 269.53 321.87 278.8C320.75 278.29 319.62 277.78 318.5 277.27C318.29 277.99 317.98 280.09 317.29 280.51C315.61 281.52 314.56 279.83 313.35 279.5C310.51 278.73 306.47 279.14 303.5 279.01C294.82 278.64 286.17 279.38 277.5 279.06C273.81 278.93 269.07 279.96 265.52 278.92C263.74 278.4 263.25 276.16 261.43 275.57C259.93 275.09 259.74 275.99 258.24 275C258.23 273 258.22 271 258.2 269C259.42 267.23 259.41 266.77 258.19 265C258.19 263 258.19 261 258.19 259C258.34 258.27 258.48 257.54 258.63 256.8C263.62 254.66 275.2 255.7 280.96 256.16C281.64 256.29 282.32 256.42 283 256.54C284 256.42 285 256.3 286 256.17C294.22 255.63 300.7 255.82 302.22 246C303.71 245.39 303.56 245.2 303.64 243.5C306.26 243.39 309.95 244.67 312.48 244C313.71 243.67 313.82 242.73 314.8 242.35C316.92 241.52 319.68 242.71 320.61 244.76C321.51 246.72 320.98 249.12 321.87 251.01Z" fill="#46910b" fill-rule="evenodd" stroke="#46910b" stroke-width="0.25" stroke-linejoin="round"/>
<path d="M258.24 286C259.06 287.71 259.03 288.36 258.15 290C258.18 288.67 258.21 287.33 258.24 286ZM238.21 294C238.49 294.6 238.77 295.19 239.04 295.79C238.77 295.19 238.49 294.6 238.21 294ZM321.04 301.59C319.73 310.35 312.1 318.86 303.23 320.58C299.11 321.38 294.67 321 290.5 321.01C269.5 321.05 248.5 321.01 227.5 321.02C216.6 321.02 205.35 321.81 194.5 320.85C184.95 320.01 175.49 310.73 174.8 301.25C178.18 299.56 186.33 300.05 190.5 300.06C202.84 300.09 215.15 300.41 227.5 300.4C229.96 300.4 232.84 299.93 235.26 300.42C236.15 300.6 236.84 301.38 237.74 301.5C238.64 301.61 239.37 301.02 240.32 301.12C241.17 301.2 241.42 302.07 242.41 301.93C243.7 301.75 243.92 300.67 244.57 299.87C247.4 299.64 250.22 299.41 253.04 299.18C253.19 299.62 252.96 300.41 253.41 300.51C253.8 300.59 254.13 300.1 254.53 300.07C256.48 299.89 258.54 300.39 260.5 300.41C263.49 300.44 266.49 300.07 269.5 300.06C274.57 300.05 280.58 301.24 285.54 300.34C287.79 299.94 288.21 298.41 290.47 298.09C295.06 297.44 299.86 298.7 304.5 298.41C309.73 298.09 317.57 297.04 321.04 301.59Z" fill="#377a08" fill-rule="evenodd" stroke="#377a08" stroke-width="0.25" stroke-linejoin="round"/>
<path d="M320.28 188.35C323.41 193.77 322.36 211.32 321.87 218.27C319.57 212.91 320.45 211.8 320.5 206.37C317.06 206.33 309.31 205.84 306.36 206.88C303.48 207.89 306.39 208.79 302.33 209.5C302.03 206.22 301.69 206.13 298.5 205.67C296.85 207.52 296.67 208.82 296.57 211.5C294.57 211.54 291.65 212.12 289.75 211.42C288.39 210.93 288.43 209.88 286.55 209.72C284.85 209.57 283.21 210.15 281.5 210.12C276.84 210.03 272.19 209.63 267.5 209.67C267.17 207.61 266.84 205.56 266.51 203.5C262.67 203.58 261.46 206.18 258.71 208.73C258.53 208.1 258.36 207.47 258.19 206.84C258.17 205.89 258.15 204.95 258.14 204C257.19 193.13 256.19 192.18 245.96 189.99C246.46 189.13 246.53 188.34 247.6 187.89C249.19 187.23 259.27 187.53 261.5 187.53C270.17 187.51 278.83 187.52 287.5 187.52C291.41 187.52 296.49 188.39 300.28 187.44C301.81 187.06 303.59 185.96 305.3 185.5C305.59 185.85 306.13 187.2 306.77 187.45C308.12 187.98 311.87 187.95 313.24 187.47C314.31 187.1 313.86 186.02 315.3 186.21C317.1 186.45 317.67 188.26 320.28 188.35ZM245.03 190.1C242.14 192.15 240.29 193.79 238 196.59C237.92 197.4 237.84 198.2 237.77 199C237.75 199.67 237.74 200.33 237.73 201C237.57 202.33 237.42 203.67 237.26 205C237.27 205.67 237.28 206.33 237.28 207C237.11 207.37 236.93 207.74 236.75 208.1C230.86 209.51 225.7 209.25 219.5 209.79C217.03 210 212.04 211.1 209.8 209.54C209.07 209.03 209.39 208.16 208.91 207.53C208.57 207.1 207.89 207.06 207.5 206.67C207.11 207.06 206.43 207.1 206.09 207.53C205.62 208.13 205.96 209.06 205.2 209.51C204.2 210.09 201.64 209.66 200.5 209.66C197.57 209.67 185.77 210.42 183.8 209.53C182.72 209.04 182.77 207.35 181.4 206.94C179.48 206.36 177.86 208.05 174.04 206.61C173.93 204.41 173.82 202.2 173.71 200C173.72 199.33 173.72 198.67 173.72 198C174.11 195.32 174.5 192.65 174.89 189.97C176.7 189.15 178.5 188.32 180.3 187.5C181.83 189.07 192.14 187.44 195.5 187.56C198.25 187.67 200.87 188.29 203.56 188.53C208.83 188.99 214.27 187.79 219.52 187.43C221.57 187.3 225.4 189.49 227.14 188.45C228.98 187.35 226.97 186.22 230.45 185.59C232 185.31 235.6 185.03 236.94 186.06C237.74 186.68 237.24 188 238.31 188.4C239.84 188.98 243.49 186.34 244.5 185.41C244.68 186.98 244.85 188.54 245.03 190.1ZM258.68 220C258.67 220.67 258.66 221.33 258.65 222C258.66 221.33 258.67 220.67 258.68 220ZM283 256.18C284 256.18 285 256.18 286 256.17C285 256.3 284 256.42 283 256.54C283 256.42 283 256.3 283 256.18Z" fill="#5fae11" fill-rule="evenodd" stroke="#5fae11" stroke-width="0.25" stroke-linejoin="round"/>
<path d="M258.63 256.8C258.48 257.54 258.34 258.27 258.19 259C258.34 258.27 258.48 257.54 258.63 256.8ZM258.24 275C259.74 275.99 259.93 275.09 261.43 275.57C263.25 276.16 263.74 278.4 265.52 278.92C269.07 279.96 273.81 278.93 277.5 279.06C286.17 279.38 294.82 278.64 303.5 279.01C306.47 279.14 310.51 278.73 313.35 279.5C314.56 279.83 315.61 281.52 317.29 280.51C317.98 280.09 318.29 277.99 318.5 277.27C319.62 277.78 320.75 278.29 321.87 278.8C322.18 283.53 323.48 297.99 321.04 301.59C317.57 297.04 309.73 298.09 304.5 298.41C299.86 298.7 295.06 297.44 290.47 298.09C288.21 298.41 287.79 299.94 285.54 300.34C280.58 301.24 274.57 300.05 269.5 300.06C266.49 300.07 263.49 300.44 260.5 300.41C258.54 300.39 256.48 299.89 254.53 300.07C254.13 300.1 253.8 300.59 253.41 300.51C252.96 300.41 253.19 299.62 253.04 299.18C255.27 296.11 257.22 293.86 258.15 290C259.03 288.36 259.06 287.71 258.24 286C258.24 282.33 258.24 278.67 258.24 275ZM237.15 275.41C237.35 275.94 237.54 276.47 237.74 277C237.65 281.33 237.57 285.67 237.48 290C237.73 291.33 237.97 292.67 238.21 294C238.49 294.6 238.77 295.19 239.04 295.79C240.89 297.15 242.73 298.51 244.57 299.87C243.92 300.67 243.7 301.75 242.41 301.93C241.42 302.07 241.17 301.2 240.32 301.12C239.37 301.02 238.64 301.61 237.74 301.5C236.84 301.38 236.15 300.6 235.26 300.42C232.84 299.93 229.96 300.4 227.5 300.4C215.15 300.41 202.84 300.09 190.5 300.06C186.33 300.05 178.18 299.56 174.8 301.25C174.46 299.83 174.12 298.42 173.78 297C173.76 293.33 173.74 289.67 173.73 286C173.79 285 173.85 284.01 173.91 283.01C175.58 280.82 174.88 281.57 175.11 278.5C181.23 280.22 188.17 279.38 194.5 279.38C202.83 279.38 211.17 279.38 219.5 279.38C222.91 279.38 227.35 280.13 230.64 279.15C231.16 279 236.28 275.94 237.15 275.41Z" fill="#3f8509" fill-rule="evenodd" stroke="#3f8509" stroke-width="0.25" stroke-linejoin="round"/>
<path d="M320.28 188.35C317.67 188.26 317.1 186.45 315.3 186.21C313.86 186.02 314.31 187.1 313.24 187.47C311.87 187.95 308.12 187.98 306.77 187.45C306.13 187.2 305.59 185.85 305.3 185.5C303.59 185.96 301.81 187.06 300.28 187.44C296.49 188.39 291.41 187.52 287.5 187.52C278.83 187.52 270.17 187.51 261.5 187.53C259.27 187.53 249.19 187.23 247.6 187.89C246.53 188.34 246.46 189.13 245.96 189.99C245.65 190.03 245.34 190.07 245.03 190.1C244.85 188.54 244.68 186.98 244.5 185.41C243.49 186.34 239.84 188.98 238.31 188.4C237.24 188 237.74 186.68 236.94 186.06C235.6 185.03 232 185.31 230.45 185.59C226.97 186.22 228.98 187.35 227.14 188.45C225.4 189.49 221.57 187.3 219.52 187.43C214.27 187.79 208.83 188.99 203.56 188.53C200.87 188.29 198.25 187.67 195.5 187.56C192.14 187.44 181.83 189.07 180.3 187.5C178.5 188.32 176.7 189.15 174.89 189.97C175.77 182.86 181.14 176.18 187.99 173.86C188.65 173.62 189.31 173.38 189.98 173.14C204.98 173 219.99 172.87 235 172.73C235.67 172.73 236.33 172.72 237 172.72C238 172.72 239 172.72 240 172.72C242 172.7 244 172.69 246 172.68C246.33 172.67 246.67 172.66 247 172.66C249 172.64 251 172.62 253 172.6C264.5 172.57 276.04 173.07 287.5 172.87C293.71 172.76 300.17 171.73 306.31 173.24C312.33 174.73 320.54 181.62 320.28 188.35ZM238 196.59C237.92 197.4 237.84 198.2 237.77 199C237.84 198.2 237.92 197.4 238 196.59Z" fill="#66b712" fill-rule="evenodd" stroke="#66b712" stroke-width="0.25" stroke-linejoin="round"/>
<path d="M974.62 371.66C974.62 385.89 974.62 400.11 974.62 414.34C974.62 400.11 974.62 385.89 974.62 371.66ZM1058.67 373C1058.53 373.43 1058.4 373.87 1058.26 374.3C1058.4 373.87 1058.53 373.43 1058.67 373ZM1396.1 373C1396.1 373.33 1396.1 373.67 1396.1 374C1396.1 373.67 1396.1 373.33 1396.1 373ZM1404.92 373C1404.92 373.33 1404.91 373.67 1404.91 374C1404.91 373.67 1404.92 373.33 1404.92 373ZM1050.19 375.63C1049.65 375.56 1049.11 375.49 1048.57 375.42C1049.11 375.49 1049.65 375.56 1050.19 375.63ZM1032.09 380C1032.09 380.75 1032.08 381.5 1032.08 382.25C1032.08 381.5 1032.09 380.75 1032.09 380ZM1038.85 380.57C1038.85 381.17 1038.85 381.77 1038.85 382.38C1038.85 381.77 1038.85 381.17 1038.85 380.57ZM422.46 383.67C422.46 393.89 422.46 404.11 422.46 414.33C422.46 404.11 422.46 393.89 422.46 383.67ZM1047.29 383.73C1047.29 385.25 1047.29 386.76 1047.29 388.28C1047.29 386.76 1047.29 385.25 1047.29 383.73ZM1344.38 383.66C1344.38 393.89 1344.38 404.11 1344.38 414.34C1344.38 404.11 1344.38 393.89 1344.38 383.66ZM1350.62 383.66C1350.62 393.89 1350.62 404.11 1350.62 414.34C1350.62 404.11 1350.62 393.89 1350.62 383.66ZM1397.38 383.66C1397.38 393.89 1397.38 404.11 1397.38 414.34C1397.38 404.11 1397.38 393.89 1397.38 383.66ZM1403.62 383.66C1403.62 393.89 1403.62 404.11 1403.62 414.34C1403.62 404.11 1403.62 393.89 1403.62 383.66ZM1032.05 389.78C1032.16 397.96 1032.27 406.15 1032.38 414.34C1032.27 406.15 1032.16 397.96 1032.05 389.78ZM1038.95 389.78C1038.84 397.96 1038.73 406.15 1038.62 414.34C1038.73 406.15 1038.84 397.96 1038.95 389.78ZM942.12 396C942.11 396.42 942.1 396.83 942.08 397.25C942.1 396.83 942.11 396.42 942.12 396ZM968.02 411.61C968.2 412.52 968.37 413.42 968.54 414.33C968.37 413.42 968.2 412.52 968.02 411.61Z" fill="#636363" fill-rule="evenodd" stroke="#636363" stroke-width="0.25" stroke-linejoin="round"/>
<path d="M974.13 98.78C973.77 98.86 973.42 98.93 973.07 99C973.21 97.71 973.36 96.43 973.5 95.14C973.71 96.36 973.92 97.57 974.13 98.78ZM1090.93 99C1090.57 99 1090.21 99 1089.86 99C1090.07 97.82 1090.29 96.65 1090.5 95.47C1090.64 96.65 1090.79 97.82 1090.93 99ZM237 172.72C236.33 172.72 235.67 172.73 235 172.73C235.17 172.36 235.33 172 235.5 171.63C236 171.99 236.5 172.36 237 172.72ZM246 172.68C244 172.69 242 172.7 240 172.72C242.09 171.29 243.88 171.28 246 172.68ZM253 172.6C251 172.62 249 172.64 247 172.66C249.08 171.28 250.87 171.27 253 172.6ZM173.72 198C173.72 198.67 173.72 199.33 173.71 200C173.35 199.5 172.98 199 172.62 198.5C172.99 198.33 173.36 198.17 173.72 198ZM173.74 208C173.74 209 173.74 210 173.74 211C172.71 209.45 172.7 209.56 173.74 208ZM173.74 213C173.74 216.33 173.73 219.67 173.73 223C171.99 220.45 171.99 215.54 173.74 213ZM173.73 225C173.72 226.67 173.72 228.33 173.72 230C172.39 228.05 172.4 226.95 173.73 225ZM173.71 232C173.71 232.67 173.72 233.33 173.72 234C173.35 233.83 172.98 233.67 172.61 233.5C172.98 233 173.35 232.5 173.71 232ZM173.72 236C173.84 237.66 173.96 239.33 174.08 240.99C173.97 242.33 173.86 243.66 173.75 245C172.05 242.57 172.04 238.46 173.72 236ZM173.76 247C173.76 250 173.76 253 173.76 256C172.06 253.55 172.06 249.45 173.76 247ZM173.74 272C173.75 272.67 173.75 273.33 173.76 274C173.49 274 173.22 274 172.96 274C173.22 273.33 173.48 272.67 173.74 272ZM172.94 278C173.2 278 173.47 278 173.73 278C173.73 278.67 173.73 279.33 173.73 280C173.46 280 173.2 280 172.94 280C172.94 279.33 172.94 278.67 172.94 278Z" fill="#f3f4f5" fill-rule="evenodd" stroke="#f3f4f5" stroke-width="0.25" stroke-linejoin="round"/>
<path d="M237.74 277C238.56 280.7 239.2 286.58 237.48 290C237.57 285.67 237.65 281.33 237.74 277ZM173.73 286C173.74 289.67 173.76 293.33 173.78 297C172.18 294.26 172.13 288.75 173.73 286Z" fill="#d7dbda" fill-rule="evenodd" stroke="#d7dbda" stroke-width="0.25" stroke-linejoin="round"/>
<path d="M189.98 173.14C189.31 173.38 188.65 173.62 187.99 173.86C188.65 173.62 189.31 173.38 189.98 173.14ZM237.73 201C237.57 202.33 237.42 203.67 237.26 205C237.42 203.67 237.57 202.33 237.73 201ZM237.28 207C237.45 210.33 237.62 213.67 237.79 217C237.45 214.03 237.1 211.07 236.75 208.1C236.93 207.74 237.11 207.37 237.28 207ZM237.8 219C237.81 220 237.81 221 237.82 222C237.81 221 237.81 220 237.8 219ZM237.77 233C237.5 233.63 237.24 234.26 236.98 234.89C237.24 234.26 237.5 233.63 237.77 233Z" fill="#9ac071" fill-rule="evenodd" stroke="#9ac071" stroke-width="0.25" stroke-linejoin="round"/>
<path d="M237 256.12C237.25 256.75 237.51 257.37 237.76 258C237.51 257.37 237.25 256.75 237 256.12ZM237.47 266C237.43 269 237.39 272 237.34 275C237.39 272 237.43 269 237.47 266Z" fill="#acaea9" fill-rule="evenodd" stroke="#acaea9" stroke-width="0.25" stroke-linejoin="round"/>
<path d="M258.14 204C258.15 204.95 258.17 205.89 258.19 206.84C258.17 205.89 258.15 204.95 258.14 204ZM201 235.74C200.32 235.86 199.64 235.97 198.96 236.09C199.47 235.24 199.99 234.4 200.5 233.56C200.67 234.29 200.83 235.02 201 235.74ZM258.19 265C259.41 266.77 259.42 267.23 258.2 269C258.2 267.67 258.2 266.33 258.19 265Z" fill="#4f9813" fill-rule="evenodd" stroke="#4f9813" stroke-width="0.25" stroke-linejoin="round"/>
<path d="M172.96 274C173.22 274 173.49 274 173.76 274C173.75 275.33 173.74 276.67 173.73 278C173.47 278 173.2 278 172.94 278C172.95 276.67 172.95 275.33 172.96 274ZM172.94 280C173.2 280 173.46 280 173.73 280C173.79 281 173.85 282.01 173.91 283.01C173.58 282.01 173.26 281 172.94 280Z" fill="#e5e8eb" fill-rule="evenodd" stroke="#e5e8eb" stroke-width="0.25" stroke-linejoin="round"/>
<path d="M1349.95 371.82C1349.61 372.19 1349.27 372.56 1348.93 372.93C1349.27 372.56 1349.61 372.19 1349.95 371.82ZM1348.93 372.93C1348.6 373.26 1348.28 373.6 1347.95 373.93C1348.28 373.6 1348.6 373.26 1348.93 372.93ZM1347.95 373.93C1347.62 374.27 1347.29 374.62 1346.96 374.96C1347.29 374.62 1347.62 374.27 1347.95 373.93ZM1346.96 374.96C1346.63 375.29 1346.29 375.63 1345.96 375.96C1346.29 375.63 1346.63 375.29 1346.96 374.96ZM1345.96 375.96C1345.63 376.29 1345.29 376.63 1344.96 376.96C1345.29 376.63 1345.63 376.29 1345.96 375.96ZM1344.96 376.96C1344.58 377.3 1344.21 377.64 1343.83 377.98C1344.21 377.64 1344.58 377.3 1344.96 376.96Z" fill="#797b77" fill-rule="evenodd" stroke="#797b77" stroke-width="0.25" stroke-linejoin="round"/>
<path d="M70.13 90.06C70.3 90.85 70.46 91.63 70.63 92.41C70.46 91.63 70.3 90.85 70.13 90.06ZM139.83 156.7C139.82 157.47 139.81 158.23 139.8 159C139.81 158.23 139.82 157.47 139.83 156.7Z" fill="#587090" fill-rule="evenodd" stroke="#587090" stroke-width="0.25" stroke-linejoin="round"/>
</svg>